<svg width="32" height="32" viewBox="0 0 32 32" fill="none" xmlns="http://www.w3.org/2000/svg">
<path d="M19.9502 8.48242H13.0479C10.8207 8.48242 9.01562 10.2879 9.01562 12.5149V19.4176C9.01562 21.645 10.821 23.4502 13.0482 23.4502H19.9498C22.177 23.4502 23.9824 21.6446 23.9824 19.4173V12.5149C23.9824 10.2876 22.177 8.48242 19.9498 8.48242H19.9502Z" stroke="white" stroke-miterlimit="10"/>
<path d="M16.4999 19.5795C18.4954 19.5795 20.1131 17.9619 20.1131 15.9665C20.1131 13.9711 18.4954 12.3535 16.4999 12.3535C14.5044 12.3535 12.8867 13.9711 12.8867 15.9665C12.8867 17.9619 14.5044 19.5795 16.4999 19.5795Z" stroke="white" stroke-miterlimit="10"/>
<path d="M20.8874 12.3529C21.315 12.3529 21.6616 12.0063 21.6616 11.5788C21.6616 11.1513 21.315 10.8047 20.8874 10.8047C20.4599 10.8047 20.1133 11.1513 20.1133 11.5788C20.1133 12.0063 20.4599 12.3529 20.8874 12.3529Z" fill="white"/>
<path d="M16 0C7.1783 0 0 7.17675 0 16C0 24.8233 7.1783 32 16 32C24.8217 32 32 24.8233 32 16C32 7.17675 24.8217 0 16 0ZM16 30.9343C7.76601 30.9343 1.06766 24.2345 1.06766 16C1.06766 7.7655 7.76601 1.06574 16 1.06574C24.234 1.06574 30.9323 7.7655 30.9323 16C30.9323 24.2345 24.234 30.9343 16 30.9343Z" fill="white"/>
</svg>
