<svg width="32" height="32" viewBox="0 0 32 32" fill="none" xmlns="http://www.w3.org/2000/svg">
<path d="M16 0C7.1783 0 0 7.17675 0 16C0 24.8233 7.1783 32 16 32C24.8217 32 32 24.8233 32 16C32 7.17675 24.8217 0 16 0ZM16 30.9343C7.76601 30.9343 1.06766 24.2345 1.06766 16C1.06766 7.7655 7.76601 1.06574 16 1.06574C24.234 1.06574 30.9323 7.7655 30.9323 16C30.9323 24.2345 24.234 30.9343 16 30.9343Z" fill="white"/>
<path d="M22.3243 10.1602C22.7866 10.1602 23.1353 10.5656 22.9488 11.3198L20.6862 21.9837C20.5281 22.7419 20.0699 22.9244 19.4374 22.5716L14.0406 18.5858C14.0196 18.5708 14.0026 18.551 13.9908 18.5281C13.9791 18.5052 13.9729 18.4798 13.9729 18.4541C13.9729 18.4283 13.9791 18.4029 13.9908 18.38C14.0026 18.3571 14.0196 18.3373 14.0406 18.3223L20.2726 12.6943C20.5565 12.443 20.2118 12.3213 19.8388 12.5484L12.0173 17.483C11.9935 17.4984 11.9666 17.5083 11.9385 17.5118C11.9104 17.5153 11.8819 17.5124 11.8551 17.5032L8.53427 16.4531C7.79631 16.2382 7.79631 15.7313 8.70051 15.3705L21.9878 10.2453C22.0932 10.1948 22.2076 10.1658 22.3243 10.1602V10.1602Z" stroke="white" stroke-width="0.8" stroke-linecap="round" stroke-linejoin="round"/>
</svg>
