<svg width="32" height="32" viewBox="0 0 32 32" fill="none" xmlns="http://www.w3.org/2000/svg">
<path d="M16 0C7.1783 0 0 7.17675 0 16C0 24.8233 7.1783 32 16 32C24.8217 32 32 24.8233 32 16C32 7.17675 24.8217 0 16 0ZM16 30.9343C7.76601 30.9343 1.06766 24.2345 1.06766 16C1.06766 7.7655 7.76601 1.06574 16 1.06574C24.234 1.06574 30.9323 7.7655 30.9323 16C30.9323 24.2345 24.234 30.9343 16 30.9343Z" fill="white"/>
<path d="M24.7927 11.0468C24.9036 10.8415 24.995 10.6262 25.0657 10.4038C25.0984 10.3006 25.0991 10.19 25.0676 10.0864C25.0361 9.98288 24.974 9.89132 24.8894 9.82383C24.8048 9.75634 24.7017 9.7161 24.5937 9.70841C24.4858 9.70073 24.378 9.72597 24.2847 9.7808C23.7723 10.0852 23.2176 10.312 22.6387 10.4538C21.936 9.81957 21.0233 9.46797 20.0767 9.4668C19.5624 9.46719 19.0535 9.57143 18.5805 9.77326C18.1075 9.97509 17.6801 10.2704 17.3239 10.6414C16.9678 11.0124 16.6902 11.4515 16.5079 11.9323C16.3255 12.4132 16.2421 12.9259 16.2627 13.4398C14.0137 13.1567 11.9601 12.0186 10.5277 10.2618C10.4728 10.1952 10.4027 10.1429 10.3233 10.1093C10.2439 10.0756 10.1575 10.0616 10.0715 10.0685C9.98549 10.0754 9.90243 10.1029 9.82935 10.1487C9.75627 10.1946 9.69534 10.2574 9.65172 10.3318C9.32375 10.8947 9.14548 11.5323 9.13393 12.1837C9.12237 12.8351 9.27792 13.4786 9.58572 14.0528C9.51023 14.0655 9.43771 14.092 9.37172 14.1308C9.29087 14.1824 9.2243 14.2534 9.17816 14.3375C9.13202 14.4216 9.1078 14.5159 9.10772 14.6118C9.10772 15.7468 9.61272 16.7888 10.4267 17.4968L10.3917 17.5318C10.3303 17.6013 10.288 17.6856 10.2691 17.7765C10.2501 17.8673 10.2552 17.9615 10.2837 18.0498C10.4535 18.5793 10.7369 19.0654 11.1141 19.4739C11.4914 19.8824 11.9534 20.2035 12.4677 20.4148C11.4113 20.9301 10.2291 21.1311 9.06172 20.9938C8.94173 20.9816 8.82107 21.0095 8.71864 21.0732C8.61622 21.1369 8.53782 21.2328 8.49572 21.3458C8.4553 21.4597 8.45454 21.5839 8.49357 21.6982C8.5326 21.8126 8.60912 21.9104 8.71072 21.9758C10.2977 22.9944 12.144 23.5355 14.0297 23.5348C20.2097 23.5348 23.9037 18.5148 23.9037 13.6618L23.9027 13.4978C24.5017 13.0302 25.0219 12.4698 25.4437 11.8378C25.5076 11.7423 25.539 11.6287 25.5333 11.5139C25.5276 11.3991 25.4851 11.2892 25.4121 11.2005C25.339 11.1117 25.2394 11.0489 25.1278 11.0212C25.0163 10.9935 24.8988 11.0025 24.7927 11.0468ZM23.0477 12.8018C22.9752 12.854 22.9168 12.9235 22.878 13.004C22.8393 13.0846 22.8213 13.1735 22.8257 13.2628C22.8317 13.3948 22.8347 13.5288 22.8347 13.6608C22.8347 17.9888 19.5417 22.4658 14.0307 22.4658C13.0478 22.4662 12.0719 22.3013 11.1437 21.9778C12.2553 21.7648 13.2996 21.2881 14.1887 20.5878C14.2753 20.5196 14.3386 20.4262 14.3702 20.3206C14.4017 20.215 14.3998 20.1022 14.3648 19.9977C14.3297 19.8932 14.2633 19.802 14.1745 19.7367C14.0857 19.6714 13.9789 19.6351 13.8687 19.6328C13.4375 19.6246 13.0143 19.5151 12.6332 19.3133C12.2521 19.1114 11.9238 18.8228 11.6747 18.4708C11.9277 18.4538 12.1757 18.4118 12.4167 18.3468C12.5334 18.3156 12.636 18.2458 12.7078 18.1487C12.7797 18.0517 12.8165 17.9332 12.8123 17.8125C12.8082 17.6918 12.7632 17.5761 12.6848 17.4843C12.6064 17.3924 12.4992 17.3299 12.3807 17.3068C11.8937 17.2077 11.4429 16.9781 11.0763 16.6426C10.7098 16.307 10.4413 15.8781 10.2997 15.4018C10.5657 15.4688 10.8387 15.5078 11.1117 15.5168C11.3467 15.5158 11.5647 15.3718 11.6377 15.1458C11.7107 14.9198 11.6247 14.6708 11.4257 14.5388C10.9552 14.2253 10.5929 13.7742 10.3883 13.2471C10.1838 12.72 10.1469 12.1426 10.2827 11.5938C12.0198 13.3761 14.3653 14.4375 16.8507 14.5658C17.0267 14.5668 17.1807 14.5038 17.2877 14.3748C17.3947 14.2458 17.4357 14.0748 17.3977 13.9108C17.261 13.3218 17.3221 12.7041 17.5718 12.1534C17.8214 11.6027 18.2456 11.1496 18.7787 10.8642C19.3118 10.5789 19.9241 10.4772 20.5209 10.5749C21.1176 10.6727 21.6655 10.9643 22.0797 11.4048C22.1418 11.471 22.2197 11.5204 22.3062 11.5482C22.3926 11.576 22.4847 11.5814 22.5737 11.5638C22.7387 11.5308 22.9017 11.4928 23.0627 11.4488C22.9901 11.5031 22.9147 11.5535 22.8367 11.5998C22.733 11.6633 22.6541 11.7603 22.6128 11.8747C22.5716 11.9891 22.5706 12.1141 22.61 12.2292C22.6493 12.3442 22.7267 12.4425 22.8294 12.5076C22.932 12.5728 23.0538 12.6011 23.1747 12.5878L23.3567 12.5648C23.2565 12.6474 23.1534 12.7264 23.0477 12.8018Z" fill="white"/>
</svg>
