<svg xmlns="http://www.w3.org/2000/svg" width="30" height="26" fill="none"><path d="M7.27 11.888l3.08-5.075 1.873 3.723 2.254-7.304C13.09.649 9.016-.683 5.64.387 2.158 1.497-.202 5.41 1.333 11.888H7.27zM20.146 3.885l3.186 8.041h4.858c1.566-6.507-.805-10.442-4.287-11.552-2.91-.928-6.328-.06-8.106 1.836l2.201 8.556 2.148-6.88zM20.544 14.75l-2.91 9.272-2.625-10.19-1.969 6.366-2.994-5.942-.678 1.11H2.68c3.46 5.932 12.075 10.633 12.075 10.633s8.572-4.681 12.054-10.583h-6.011l-.254-.666z" fill="#BA2E2F"/><path d="M22.42 13.096l-2.205-5.69-2.397 7.83L15.18 4.762l-2.712 9.013-2.249-4.558-2.27 3.838H0v1.183h8.645l1.478-2.49 2.607 5.31 2.344-7.749 2.628 10.434 2.65-8.643 1.235 3.18H30v-1.184h-7.58z" fill="#BA2E2F"/></svg>